<svg xmlns="http://www.w3.org/2000/svg" width="20" height="20" fill="none"><g clip-path="url(#a)"><path fill="#fff" d="M2.5 18.75a1.25 1.25 0 1 1-2.5 0 1.25 1.25 0 0 1 2.5 0ZM13.89 3.126l-.518-.932a6.008 6.008 0 0 0-1.566 1.474l.942.526a4.955 4.955 0 0 1 1.143-1.068ZM3.498 17.979a2.277 2.277 0 0 1 .083 1.063 10.31 10.31 0 0 0 1.87-.425l-.317-1.013a8.924 8.924 0 0 1-1.635.375Zm4.888-6.224 4.64-3.208-3.462 3.655 3.608 3.212 2.662-9.763-10.65 5.326 3.202.778Zm8.018-10.668a8.64 8.64 0 0 0-2.09.601l.519.932a7.523 7.523 0 0 1 1.714-.478 2.275 2.275 0 0 1-.154-.824l.011-.23ZM18.75 0a1.25 1.25 0 1 0 .001 2.5 1.25 1.25 0 0 0 0-2.5ZM7.5 16.116c-.4.42-.848.784-1.38 1.067l.322 1.028c.383-.19.73-.413 1.059-.66v-1.435H7.5Zm1.677.368 1.446-2.148-1.446-1.288v3.436ZM12.17 5.095l-.932-.52c-.306.58-.535 1.208-.726 1.858l1.358-.665a7.42 7.42 0 0 1 .3-.673Z"/></g><defs><clipPath id="a"><path fill="#fff" d="M0 0h20v20H0z"/></clipPath></defs></svg>