<svg xmlns="http://www.w3.org/2000/svg" width="25" height="25" fill="none"><g clip-path="url(#a)"><path fill="#7B2CBF" d="M12.593 2.531c5.445 0 9.876 4.43 9.876 9.877 0 5.445-4.43 9.876-9.876 9.876s-9.877-4.43-9.877-9.876 4.43-9.877 9.877-9.877Zm0-1.975C6.047.556.74 5.862.74 12.408c0 6.545 5.306 11.851 11.852 11.851 6.545 0 11.852-5.306 11.852-11.851 0-6.546-5.307-11.852-11.852-11.852Zm0 5.926A5.926 5.926 0 0 0 10.72 18.03c.296.055.391-.128.391-.285v-1.103c-1.648.358-1.992-.699-1.992-.699-.269-.684-.658-.867-.658-.867-.537-.368.04-.36.04-.36.596.041.91.611.91.611.528.906 1.385.644 1.724.493.053-.383.206-.644.376-.792-1.316-.15-2.7-.659-2.7-2.929 0-.646.232-1.175.611-1.59-.061-.15-.264-.754.058-1.57 0 0 .497-.16 1.63.607.472-.131.979-.196 1.483-.2.503.003 1.01.069 1.484.2 1.132-.766 1.628-.607 1.628-.607.323.816.12 1.42.059 1.568.38.415.61.944.61 1.59 0 2.277-1.387 2.778-2.707 2.924.213.184.407.544.407 1.097v1.626c0 .158.095.343.395.284a5.926 5.926 0 0 0-1.877-11.547Z"/></g><defs><clipPath id="a"><path fill="#fff" d="M.74.556h23.705V24.26H.74z"/></clipPath></defs></svg>