<svg xmlns="http://www.w3.org/2000/svg" width="26" height="26" fill="none"><g clip-path="url(#a)"><path fill="#fff" d="M13 2.167c5.974 0 10.833 4.86 10.833 10.833 0 5.974-4.86 10.833-10.833 10.833S2.167 18.973 2.167 13 7.027 2.167 13 2.167ZM13 0C5.82 0 0 5.82 0 13s5.82 13 13 13 13-5.82 13-13S20.18 0 13 0Zm-2.167 8.667c0 .603-.484 1.092-1.083 1.092-.6 0-1.083-.488-1.083-1.092 0-.604.484-1.092 1.083-1.092.6 0 1.083.49 1.083 1.092Zm0 2.166H8.667v6.5h2.166v-6.5Zm3.25 0h-2.166v6.5h2.166v-3.1c0-1.865 2.17-2.037 2.17 0v3.1h2.164v-3.639c0-3.557-3.389-3.427-4.334-1.677v-1.184Z"/></g><defs><clipPath id="a"><path fill="#fff" d="M0 0h26v26H0z"/></clipPath></defs></svg>