<svg xmlns="http://www.w3.org/2000/svg" width="23" height="23" fill="none"><g clip-path="url(#a)"><path fill="#383D43" fill-rule="evenodd" d="M6.56 17.845a2.969 2.969 0 0 0-.754-1.545c-1.797-1.405-2.931-3.464-2.931-5.758 0-4.234 3.862-7.667 8.625-7.667 4.764 0 8.625 3.433 8.625 7.667s-3.861 7.667-8.625 7.667c-.81 0-1.594-.1-2.338-.285a.249.249 0 0 0-.267.104 7.102 7.102 0 0 1-.388.533c-.22.274-.466.538-.731.767-.497.43-1.061.742-1.65.79l-.06.005c-.04.002-.062-.044-.039-.076.012-.015.022-.03.033-.046a2.935 2.935 0 0 0 .5-2.156Zm-2.092-.16c-2.114-1.721-3.51-4.258-3.51-7.143C.958 5.043 5.896.958 11.5.958s10.542 4.085 10.542 9.584-4.938 9.583-10.542 9.583c-.577 0-1.145-.042-1.699-.124-.279.324-.594.638-.941.919-.661.535-1.582 1.06-2.696 1.117-1.802.092-2.569-1.909-1.685-3.12a1.02 1.02 0 0 0-.011-1.232Z" clip-rule="evenodd"/></g><defs><clipPath id="a"><path fill="#fff" d="M0 0h23v23H0z"/></clipPath></defs></svg>