<svg xmlns="http://www.w3.org/2000/svg" width="23" height="23" fill="none"><path fill="#383D43" fill-rule="evenodd" d="M18.41 1.981 3.547 5.697C1.57 6.191 1.324 8.9 3.177 9.742l4.58 2.082a5.66 5.66 0 0 0 2.944.476 5.656 5.656 0 0 0 .475 2.943l2.082 4.58c.843 1.854 3.55 1.607 4.045-.369L21.019 4.59c.394-1.575-1.033-3.002-2.608-2.608ZM8.55 10.08a3.746 3.746 0 0 0 3.891-.485l2.193-1.755c.35-.28.806.178.527.527l-1.755 2.193a3.801 3.801 0 0 0-.605 1.087c-.32.9-.288 1.905.12 2.804l2.082 4.58a.234.234 0 0 0 .44-.04L19.16 4.124a.234.234 0 0 0-.285-.284L4.011 7.557a.234.234 0 0 0-.04.44l4.58 2.082Z" clip-rule="evenodd"/></svg>