<svg xmlns="http://www.w3.org/2000/svg" width="26" height="26" fill="none"><g clip-path="url(#a)"><path fill="#fff" d="m.062 26 1.827-6.677A12.856 12.856 0 0 1 .17 12.882C.173 5.78 5.953 0 13.054 0a12.801 12.801 0 0 1 9.114 3.779 12.81 12.81 0 0 1 3.77 9.115c-.003 7.103-5.783 12.883-12.884 12.883a12.89 12.89 0 0 1-6.162-1.569L.062 26Zm7.147-4.124c1.815 1.078 3.549 1.723 5.84 1.724 5.903 0 10.71-4.803 10.714-10.708.002-5.917-4.783-10.714-10.705-10.717-5.906 0-10.71 4.804-10.713 10.708 0 2.41.706 4.215 1.892 6.104l-1.082 3.952 4.054-1.063Zm12.335-5.92c-.08-.134-.294-.214-.617-.375-.322-.162-1.905-.94-2.2-1.048-.295-.107-.51-.162-.725.161-.215.322-.832 1.048-1.02 1.262-.187.215-.375.242-.697.08-.322-.16-1.36-.5-2.59-1.597-.956-.854-1.603-1.908-1.79-2.23-.187-.323-.02-.497.14-.657.146-.144.322-.376.484-.565.164-.186.217-.32.325-.536.107-.215.054-.403-.027-.565-.081-.16-.725-1.745-.992-2.39-.263-.627-.528-.542-.725-.552l-.618-.01c-.214 0-.563.08-.858.402-.294.323-1.126 1.101-1.126 2.686s1.153 3.116 1.314 3.33c.161.215 2.27 3.467 5.499 4.861.768.331 1.368.53 1.835.678.771.245 1.473.21 2.028.128.618-.092 1.904-.779 2.173-1.53.269-.754.269-1.398.187-1.533Z"/></g><defs><clipPath id="a"><path fill="#fff" d="M0 0h26v26H0z"/></clipPath></defs></svg>