<svg width="67" height="26" viewBox="0 0 67 26" fill="none" xmlns="http://www.w3.org/2000/svg">
<path d="M29.1352 25.6473H24.5615V10.5885L16.514 24.8891C16.3162 25.2535 16.0368 25.5298 15.6761 25.7179C15.3269 25.906 14.9487 26 14.5414 26C14.1457 26 13.7733 25.906 13.4242 25.7179C13.0867 25.5298 12.819 25.2535 12.6212 24.8891L4.53873 10.5885V25.6473H0V2.31845C0 1.78946 0.151291 1.31923 0.453873 0.907789C0.768093 0.496345 1.17542 0.22009 1.67584 0.0790234C1.92023 0.0202457 2.16463 0.00261235 2.40902 0.0261234C2.65341 0.037879 2.88617 0.0907789 3.10729 0.184823C3.34004 0.267112 3.54952 0.390545 3.73572 0.555123C3.92193 0.707945 4.07904 0.896034 4.20705 1.11939L14.5414 19.2641L24.8757 1.11939C25.1434 0.672678 25.51 0.355279 25.9755 0.16719C26.4527 -0.0208987 26.9473 -0.0502876 27.4593 0.0790234C27.9481 0.22009 28.3496 0.496345 28.6638 0.907789C28.9781 1.31923 29.1352 1.78946 29.1352 2.31845V25.6473Z" fill="white"/>
<path d="M59.3701 10.9411C59.3701 11.9874 59.2421 12.922 58.986 13.7448C58.73 14.5677 58.3809 15.2966 57.9386 15.9314C57.508 16.5544 57.0076 17.0893 56.4374 17.536C55.8671 17.9827 55.2678 18.3471 54.6393 18.6293C54.0225 18.9114 53.3941 19.1171 52.754 19.2464C52.1256 19.3757 51.5321 19.4404 50.9734 19.4404H40.7089V14.8557H50.9734C51.5553 14.8087 52.079 14.6912 52.5445 14.5031C53.0217 14.3032 53.429 14.0387 53.7665 13.7096C54.104 13.3804 54.3659 12.9866 54.5521 12.5281C54.7383 12.0579 54.8314 11.5289 54.8314 10.9411V8.86041C54.7732 8.28439 54.651 7.75539 54.4648 7.27342C54.2786 6.79144 54.0225 6.38 53.6967 6.03908C53.3825 5.69817 52.9984 5.43367 52.5445 5.24558C52.0907 5.04574 51.567 4.94582 50.9734 4.94582H40.7438C40.1387 4.94582 39.679 5.10452 39.3648 5.42192C39.0505 5.73932 38.8934 6.19778 38.8934 6.79732V25.6473H34.3547V6.79732C34.3547 5.62176 34.5642 4.62254 34.9831 3.79965C35.4137 2.97677 35.9433 2.31258 36.5717 1.80709C37.2118 1.3016 37.9042 0.937178 38.649 0.713823C39.3939 0.478712 40.0805 0.361156 40.7089 0.361156H50.9734C51.9976 0.361156 52.917 0.496345 53.7316 0.766723C54.5462 1.02534 55.262 1.37801 55.8788 1.82472C56.5072 2.25968 57.0367 2.76517 57.4673 3.34119C57.9096 3.91721 58.2703 4.52262 58.5496 5.15742C58.8406 5.78046 59.0501 6.41526 59.1781 7.06182C59.3061 7.69662 59.3701 8.29615 59.3701 8.86041V10.9411Z" fill="white"/>
<path d="M67 23.1597C67 23.5015 66.9311 23.8243 66.7932 24.1282C66.6679 24.4193 66.4924 24.6789 66.2668 24.9067C66.0538 25.122 65.7968 25.2929 65.496 25.4195C65.2078 25.5461 64.9007 25.6094 64.5749 25.6094C64.2365 25.6094 63.9169 25.5461 63.6161 25.4195C63.3278 25.2929 63.0709 25.122 62.8453 24.9067C62.6323 24.6789 62.4631 24.4193 62.3377 24.1282C62.2124 23.8243 62.1497 23.5015 62.1497 23.1597C62.1497 22.8305 62.2124 22.5204 62.3377 22.2292C62.4631 21.9253 62.6323 21.6658 62.8453 21.4506C63.0709 21.2227 63.3278 21.0455 63.6161 20.9189C63.9169 20.7796 64.2365 20.71 64.5749 20.71C64.9007 20.71 65.2078 20.7796 65.496 20.9189C65.7968 21.0455 66.0538 21.2227 66.2668 21.4506C66.4924 21.6658 66.6679 21.9253 66.7932 22.2292C66.9311 22.5204 67 22.8305 67 23.1597Z" fill="#FDC500"/>
</svg>
