<svg width="99" height="38" viewBox="0 0 99 38" fill="none" xmlns="http://www.w3.org/2000/svg">
<path d="M43.2109 37H36.5586V15.3164L24.8535 35.9082C24.5658 36.4329 24.1595 36.8307 23.6348 37.1016C23.127 37.3724 22.5768 37.5078 21.9844 37.5078C21.4089 37.5078 20.8672 37.3724 20.3594 37.1016C19.8685 36.8307 19.4792 36.4329 19.1914 35.9082L7.43555 15.3164V37H0.833984V3.40821C0.833984 2.64649 1.05404 1.9694 1.49414 1.37696C1.95117 0.784508 2.54362 0.386722 3.27148 0.183597C3.62695 0.0989612 3.98242 0.0735705 4.33789 0.107425C4.69336 0.124352 5.0319 0.200524 5.35352 0.33594C5.69206 0.45443 5.99674 0.632164 6.26758 0.869143C6.53841 1.0892 6.76693 1.36003 6.95312 1.68164L21.9844 27.8086L37.0156 1.68164C37.4049 1.03841 37.9382 0.581383 38.6152 0.31055C39.3092 0.0397164 40.0286 -0.00260135 40.7734 0.183597C41.4844 0.386722 42.0684 0.784508 42.5254 1.37696C42.9824 1.9694 43.2109 2.64649 43.2109 3.40821V37Z" fill="white"/>
<path d="M87.1875 15.8242C87.1875 17.3307 87.0013 18.6764 86.6289 19.8613C86.2565 21.0462 85.7487 22.0957 85.1055 23.0098C84.4792 23.9069 83.7513 24.6771 82.9219 25.3203C82.0924 25.9635 81.2207 26.4883 80.3066 26.8945C79.4095 27.3008 78.4954 27.597 77.5645 27.7832C76.6504 27.9694 75.7871 28.0625 74.9746 28.0625H60.0449V21.4609H74.9746C75.821 21.3932 76.5827 21.224 77.2598 20.9531C77.9538 20.6654 78.5462 20.2845 79.0371 19.8105C79.528 19.3366 79.9089 18.7695 80.1797 18.1094C80.4505 17.4323 80.5859 16.6706 80.5859 15.8242V12.8281C80.5013 11.9987 80.3236 11.237 80.0527 10.543C79.7819 9.84896 79.4095 9.25651 78.9355 8.76563C78.4785 8.27474 77.9199 7.89388 77.2598 7.62305C76.5996 7.33529 75.8379 7.19141 74.9746 7.19141H60.0957C59.2155 7.19141 58.5469 7.41992 58.0898 7.87696C57.6328 8.33399 57.4043 8.99414 57.4043 9.85742V37H50.8027V9.85742C50.8027 8.16472 51.1074 6.72591 51.7168 5.54102C52.3431 4.35612 53.1133 3.39974 54.0273 2.67188C54.9583 1.94401 55.9655 1.41927 57.0488 1.09766C58.1322 0.759117 59.1309 0.589847 60.0449 0.589847H74.9746C76.4642 0.589847 77.8014 0.784508 78.9863 1.17383C80.1712 1.54623 81.2122 2.05404 82.1094 2.69727C83.0234 3.32357 83.7936 4.05144 84.4199 4.88086C85.0631 5.71029 85.5879 6.58203 85.9941 7.4961C86.4173 8.39323 86.722 9.30729 86.9082 10.2383C87.0944 11.1523 87.1875 12.0156 87.1875 12.8281V15.8242Z" fill="white"/>
<path d="M98.2852 33.418C98.2852 33.9102 98.1849 34.375 97.9844 34.8125C97.8021 35.2318 97.5469 35.6055 97.2188 35.9336C96.9089 36.2435 96.5352 36.4896 96.0977 36.6719C95.6784 36.8542 95.2318 36.9453 94.7578 36.9453C94.2656 36.9453 93.8008 36.8542 93.3633 36.6719C92.944 36.4896 92.5703 36.2435 92.2422 35.9336C91.9323 35.6055 91.6862 35.2318 91.5039 34.8125C91.3216 34.375 91.2305 33.9102 91.2305 33.418C91.2305 32.944 91.3216 32.4974 91.5039 32.0781C91.6862 31.6406 91.9323 31.2669 92.2422 30.957C92.5703 30.6289 92.944 30.3737 93.3633 30.1914C93.8008 29.9909 94.2656 29.8906 94.7578 29.8906C95.2318 29.8906 95.6784 29.9909 96.0977 30.1914C96.5352 30.3737 96.9089 30.6289 97.2188 30.957C97.5469 31.2669 97.8021 31.6406 97.9844 32.0781C98.1849 32.4974 98.2852 32.944 98.2852 33.418Z" fill="#FDC500"/>
</svg>
