<svg width="46" height="18" viewBox="0 0 46 18" fill="none" xmlns="http://www.w3.org/2000/svg">
<path d="M20.0032 17.7558H16.8631V7.33049L11.338 17.2309C11.2021 17.4832 11.0104 17.6745 10.7627 17.8047C10.523 17.9349 10.2633 18 9.98365 18C9.71198 18 9.4563 17.9349 9.21659 17.8047C8.98488 17.6745 8.80111 17.4832 8.66528 17.2309L3.11614 7.33049V17.7558H0V1.60508C0 1.23885 0.103871 0.913315 0.311614 0.62847C0.527347 0.343624 0.807001 0.15237 1.15058 0.0547085C1.31837 0.0140162 1.48616 0.00180855 1.65395 0.0180855C1.82175 0.0262239 1.98155 0.062847 2.13336 0.127955C2.29316 0.184924 2.43698 0.270378 2.56483 0.384316C2.69267 0.490116 2.80053 0.620331 2.88843 0.774962L9.98365 13.3367L17.0789 0.774962C17.2626 0.4657 17.5143 0.245962 17.8339 0.115747C18.1615 -0.0144684 18.5011 -0.0348145 18.8527 0.0547085C19.1883 0.15237 19.4639 0.343624 19.6796 0.62847C19.8954 0.913315 20.0032 1.23885 20.0032 1.60508V17.7558Z" fill="white"/>
<path d="M40.7616 7.57464C40.7616 8.29896 40.6737 8.94597 40.4979 9.51566C40.3221 10.0854 40.0824 10.5899 39.7788 11.0294C39.4831 11.4608 39.1396 11.8311 38.7481 12.1403C38.3565 12.4496 37.945 12.7019 37.5136 12.8972C37.0901 13.0925 36.6586 13.2349 36.2192 13.3245C35.7877 13.414 35.3802 13.4587 34.9967 13.4587H27.9494V10.2847H34.9967C35.3962 10.2522 35.7558 10.1708 36.0754 10.0406C36.403 9.90224 36.6826 9.71912 36.9143 9.49125C37.146 9.26337 37.3258 8.99073 37.4537 8.67333C37.5815 8.34779 37.6454 7.98156 37.6454 7.57464V6.13413C37.6055 5.73535 37.5216 5.36912 37.3937 5.03544C37.2659 4.70177 37.0901 4.41692 36.8664 4.1809C36.6506 3.94489 36.387 3.76177 36.0754 3.63156C35.7637 3.49321 35.4042 3.42403 34.9967 3.42403H27.9734C27.5579 3.42403 27.2423 3.5339 27.0266 3.75364C26.8108 3.97337 26.703 4.29077 26.703 4.70583V17.7558H23.5868V4.70583C23.5868 3.89199 23.7306 3.20022 24.0183 2.63053C24.3139 2.06084 24.6775 1.60101 25.1089 1.25106C25.5484 0.901108 26.0238 0.648816 26.5352 0.494185C27.0465 0.331416 27.5179 0.250031 27.9494 0.250031H34.9967C35.6998 0.250031 36.331 0.343624 36.8904 0.530808C37.4497 0.709854 37.941 0.954008 38.3645 1.26327C38.796 1.56439 39.1595 1.91435 39.4552 2.31313C39.7588 2.71191 40.0065 3.13104 40.1983 3.57052C40.398 4.00186 40.5418 4.44134 40.6297 4.88895C40.7176 5.32843 40.7616 5.74349 40.7616 6.13413V7.57464Z" fill="white"/>
<path d="M46 16.0336C46 16.2703 45.9527 16.4938 45.858 16.7041C45.772 16.9057 45.6515 17.0854 45.4966 17.2431C45.3503 17.3921 45.1739 17.5104 44.9674 17.5981C44.7695 17.6857 44.5587 17.7296 44.335 17.7296C44.1027 17.7296 43.8832 17.6857 43.6767 17.5981C43.4788 17.5104 43.3024 17.3921 43.1475 17.2431C43.0012 17.0854 42.8851 16.9057 42.799 16.7041C42.713 16.4938 42.67 16.2703 42.67 16.0336C42.67 15.8057 42.713 15.591 42.799 15.3894C42.8851 15.1791 43.0012 14.9994 43.1475 14.8504C43.3024 14.6927 43.4788 14.57 43.6767 14.4823C43.8832 14.3859 44.1027 14.3377 44.335 14.3377C44.5587 14.3377 44.7695 14.3859 44.9674 14.4823C45.1739 14.57 45.3503 14.6927 45.4966 14.8504C45.6515 14.9994 45.772 15.1791 45.858 15.3894C45.9527 15.591 46 15.8057 46 16.0336Z" fill="#FDC500"/>
</svg>
