<svg xmlns="http://www.w3.org/2000/svg" width="82" height="123" fill="none"><g clip-path="url(#a)"><path fill="#0ACF83" d="M20.5 123c11.311 0 20.5-9.179 20.5-20.5V82H20.5C9.189 82 0 91.179 0 102.5S9.189 123 20.5 123Z"/><path fill="#A259FF" d="M0 61.5C0 50.189 9.189 41 20.5 41H41v41H20.5C9.189 82 0 72.821 0 61.5Z"/><path fill="#F24E1E" d="M0 20.5C0 9.189 9.189 0 20.5 0H41v41H20.5C9.189 41 0 31.821 0 20.5Z"/><path fill="#FF7262" d="M41 0h20.5C72.811 0 82 9.189 82 20.5 82 31.821 72.821 41 61.5 41H41V0Z"/><path fill="#1ABCFE" d="M82 61.5C82 72.821 72.821 82 61.5 82S41 72.821 41 61.5C41 50.189 50.179 41 61.5 41S82 50.189 82 61.5Z"/></g><defs><clipPath id="a"><path fill="#fff" d="M0 0h82v123H0z"/></clipPath></defs></svg>