<svg width="82" height="123" viewBox="0 0 82 123" fill="none" xmlns="http://www.w3.org/2000/svg">
<g clip-path="url(#clip0_35_145)">
<path d="M20.5 123C31.811 123 41 113.821 41 102.5V82H20.5C9.18896 82 0 91.179 0 102.5C0 113.821 9.18896 123 20.5 123Z" fill="#0ACF83"/>
<path d="M0 61.5C0 50.189 9.18896 41 20.5 41H41V82H20.5C9.18896 82 0 72.821 0 61.5Z" fill="#A259FF"/>
<path d="M0 20.5C0 9.18896 9.18896 0 20.5 0H41V41H20.5C9.18896 41 0 31.821 0 20.5Z" fill="#F24E1E"/>
<path d="M41 0H61.5C72.811 0 82 9.18896 82 20.5C82 31.821 72.821 41 61.5 41H41V0Z" fill="#FF7262"/>
<path d="M82 61.5C82 72.821 72.821 82 61.5 82C50.179 82 41 72.821 41 61.5C41 50.189 50.179 41 61.5 41C72.821 41 82 50.189 82 61.5Z" fill="#1ABCFE"/>
</g>
<defs>
<clipPath id="clip0_35_145">
<rect width="82" height="123" fill="white"/>
</clipPath>
</defs>
</svg>
