<svg xmlns="http://www.w3.org/2000/svg" width="122" height="122" fill="none"><g fill-rule="evenodd" clip-path="url(#a)" clip-rule="evenodd"><path fill="#F7DF1E" d="M0 0h122v122H0V0Z"/><path fill="#000" d="m32.079 101.955 9.332-5.65c1.797 3.197 3.435 5.898 7.367 5.898 3.763 0 6.146-1.47 6.146-7.208v-38.99H66.39v39.149c0 11.874-6.96 17.275-17.116 17.275-9.174 0-14.496-4.746-17.196-10.474Zm40.537-1.232 9.333-5.4c2.462 4.01 5.65 6.959 11.298 6.959 4.746 0 7.784-2.373 7.784-5.65 0-3.93-3.107-5.32-8.35-7.614l-2.869-1.231c-8.27-3.525-13.76-7.943-13.76-17.276 0-8.598 6.552-15.15 16.788-15.15 7.288 0 12.53 2.541 16.293 9.173l-8.926 5.73c-1.966-3.525-4.09-4.915-7.367-4.915-3.356 0-5.49 2.124-5.49 4.914 0 3.435 2.125 4.835 7.04 6.96l2.868 1.231c9.75 4.18 15.231 8.44 15.231 18.02 0 10.316-8.112 15.965-19.003 15.965-10.634 0-17.514-5.083-20.87-11.716Z"/></g><defs><clipPath id="a"><rect width="122" height="122" fill="#fff" rx="8"/></clipPath></defs></svg>