<svg xmlns="http://www.w3.org/2000/svg" width="122" height="110" fill="none"><g clip-path="url(#a)"><path fill="#00D8FF" fill-rule="evenodd" d="M122 55.015c0-8.182-10.117-15.932-25.635-20.747 3.584-16.013 1.986-28.75-5.024-32.83C89.723.481 87.836.03 85.771.03v5.62c1.142 0 2.065.23 2.84.653 3.385 1.96 4.845 9.439 3.703 19.058-.278 2.363-.725 4.856-1.27 7.399-4.876-1.206-10.197-2.141-15.787-2.744-3.356-4.655-6.84-8.886-10.345-12.586 8.101-7.64 15.706-11.81 20.88-11.81V0C78.95 0 70.004 4.936 60.95 13.5 51.896 4.986 42.95.1 36.11.1v5.62c5.142 0 12.777 4.151 20.889 11.73-3.485 3.7-6.96 7.901-10.266 12.566-5.62.603-10.941 1.538-15.816 2.764a75.048 75.048 0 0 1-1.29-7.298c-1.172-9.62.277-17.099 3.633-19.089.745-.452 1.718-.653 2.86-.653V.13c-2.085 0-3.982.453-5.62 1.408-6.99 4.081-8.558 16.797-4.944 32.76C10.067 39.123 0 46.853 0 55.015c0 8.182 10.117 15.933 25.635 20.748-3.584 16.013-1.986 28.749 5.024 32.83 1.618.955 3.505 1.407 5.6 1.407 6.84 0 15.786-4.936 24.84-13.5 9.055 8.514 18 13.399 24.841 13.399 2.085 0 3.981-.452 5.62-1.407 6.99-4.081 8.558-16.797 4.944-32.76C111.933 70.927 122 63.167 122 55.015Zm-49.662 0c0-6.353-5.083-11.51-11.368-11.51-6.274 0-11.368 5.147-11.368 11.51 0 6.363 5.084 11.51 11.368 11.51 6.285-.01 11.368-5.157 11.368-11.51Zm17.286-16.797c-.924 3.247-2.066 6.594-3.356 9.942-1.023-2.01-2.085-4.031-3.257-6.042-1.141-2.01-2.363-3.98-3.584-5.89 3.535.532 6.94 1.186 10.197 1.99ZM78.236 65.037c-1.936 3.398-3.932 6.624-5.997 9.62-3.703.332-7.456.502-11.239.502-3.753 0-7.506-.18-11.19-.482a136.287 136.287 0 0 1-6.016-9.57 132.89 132.89 0 0 1-5.173-10.022c1.54-3.377 3.287-6.745 5.143-10.042 1.936-3.397 3.932-6.624 5.997-9.62A125.99 125.99 0 0 1 61 34.922c3.753 0 7.506.18 11.19.483a136.261 136.261 0 0 1 6.016 9.569 132.89 132.89 0 0 1 5.173 10.022 145.088 145.088 0 0 1-5.143 10.042Zm8.032-3.277a112.156 112.156 0 0 1 3.435 10.022 109.016 109.016 0 0 1-10.246 2.01 145.25 145.25 0 0 0 3.584-5.97 162.92 162.92 0 0 0 3.227-6.062ZM61.05 88.62c-2.314-2.413-4.627-5.107-6.91-8.053 2.233.101 4.527.181 6.84.181 2.333 0 4.647-.05 6.91-.18a99.14 99.14 0 0 1-6.84 8.051ZM42.553 73.791c-3.534-.532-6.94-1.186-10.196-1.99.923-3.247 2.065-6.594 3.355-9.941 1.023 2.01 2.085 4.03 3.257 6.04 1.172 2.021 2.363 3.981 3.584 5.891Zm18.368-52.391c2.313 2.412 4.626 5.106 6.91 8.052-2.234-.1-4.528-.181-6.84-.181-2.334 0-4.647.05-6.911.18a99.157 99.157 0 0 1 6.84-8.051ZM42.523 36.228a145.251 145.251 0 0 0-3.584 5.97 149.159 149.159 0 0 0-3.236 6.042 112.123 112.123 0 0 1-3.436-10.022 120.707 120.707 0 0 1 10.256-1.99ZM20.016 67.75c-8.807-3.8-14.496-8.786-14.496-12.736 0-3.95 5.7-8.966 14.496-12.736 2.134-.935 4.477-1.759 6.89-2.543 1.42 4.936 3.286 10.072 5.6 15.33-2.284 5.236-4.13 10.343-5.52 15.258-2.463-.784-4.806-1.638-6.97-2.573Zm13.383 35.977c-3.386-1.961-4.845-9.44-3.703-19.06.278-2.362.725-4.854 1.27-7.398 4.876 1.207 10.197 2.142 15.787 2.745 3.356 4.654 6.84 8.886 10.345 12.585-8.111 7.629-15.716 11.811-20.89 11.811-1.121-.03-2.064-.251-2.809-.683Zm58.985-19.18c1.171 9.62-.278 17.099-3.634 19.089-.745.452-1.718.653-2.86.653-5.142 0-12.777-4.151-20.889-11.73 3.485-3.7 6.96-7.901 10.266-12.566 5.62-.603 10.941-1.537 15.816-2.774.576 2.543 1.023 4.986 1.3 7.328Zm9.571-16.797c-2.135.935-4.478 1.76-6.89 2.543-1.42-4.935-3.287-10.072-5.6-15.33 2.283-5.236 4.13-10.343 5.52-15.258a82.273 82.273 0 0 1 6.989 2.563c8.807 3.8 14.496 8.786 14.496 12.736-.02 3.96-5.709 8.966-14.515 12.746Z" clip-rule="evenodd"/></g><defs><clipPath id="a"><path fill="#fff" d="M0 0h122v110H0z"/></clipPath></defs></svg>