<svg xmlns="http://www.w3.org/2000/svg" width="122" height="92" fill="none"><g clip-path="url(#a)"><path fill="#CF649A" fill-rule="evenodd" d="M105.022 52.827c-4.269.02-7.962 1.059-11.06 2.587-1.142-2.278-2.283-4.265-2.482-5.753-.218-1.728-.476-2.777-.218-4.845.258-2.057 1.45-4.984 1.45-5.223-.02-.22-.259-1.269-2.721-1.299-2.452-.02-4.577.48-4.815 1.129-.239.649-.715 2.137-1.023 3.665-.427 2.258-4.905 10.238-7.456 14.433-.834-1.628-1.55-3.066-1.688-4.215-.219-1.728-.477-2.776-.219-4.844.259-2.058 1.45-4.984 1.45-5.224-.02-.22-.258-1.268-2.72-1.298-2.453-.02-4.577.48-4.816 1.128-.238.65-.496 2.178-1.022 3.666-.497 1.488-6.454 14.812-8.003 18.288a74.45 74.45 0 0 1-1.975 4.145c-.497.96-.02.07-.07.17-.427.819-.665 1.269-.665 1.269v.02c-.337.599-.695 1.178-.854 1.178-.119 0-.357-1.608.05-3.815.883-4.625 3.028-11.846 2.998-12.106 0-.12.407-1.388-1.38-2.037-1.737-.65-2.363.429-2.502.429-.139 0-.258.38-.258.38s1.926-8.13-3.693-8.13c-3.525 0-8.39 3.855-10.792 7.38l-8.201 4.505c-1.31.72-2.671 1.488-3.952 2.178l-.258-.29c-6.82-7.282-19.43-12.455-18.904-22.284.19-3.575 1.43-12.994 24.216-24.4 18.655-9.35 33.597-6.782 36.199-1.08 3.693 8.151-7.983 23.303-27.383 25.48-7.387.84-11.269-2.037-12.251-3.116-1.023-1.128-1.172-1.178-1.55-.959-.615.34-.238 1.339 0 1.938.577 1.508 2.96 4.195 7.01 5.533 3.555 1.179 12.222 1.818 22.706-2.257C69.916 34.58 79.09 21.863 76.4 11.246 73.659.45 55.837-3.106 38.989 2.916c-10.028 3.596-20.9 9.21-28.713 16.57C.983 28.207-.496 35.828.119 38.994 2.284 50.29 17.752 57.641 23.947 63.084c-.307.17-.595.34-.854.48-3.097 1.538-14.892 7.74-17.85 14.313-3.337 7.43.525 12.785 3.097 13.504 7.962 2.227 16.114-1.778 20.522-8.37 4.388-6.592 3.862-15.152 1.837-19.057l-.07-.14 2.433-1.439a124.06 124.06 0 0 1 4.477-2.537c-.764 2.088-1.31 4.555-1.598 8.15-.338 4.216 1.38 9.69 3.643 11.847 1.003.938 2.195.958 2.93.958 2.62 0 3.812-2.177 5.122-4.794 1.619-3.186 3.048-6.882 3.048-6.882s-1.787 9.998 3.098 9.998c1.787 0 3.574-2.327 4.388-3.525v.02s.05-.07.14-.24c.099-.15.198-.3.287-.46v-.05c.715-1.248 2.314-4.095 4.696-8.819 3.078-6.093 6.027-13.714 6.027-13.714s.288 1.868 1.172 4.934c.526 1.818 1.667 3.816 2.551 5.754-.715 1.008-1.142 1.578-1.142 1.578l.02.02a65.714 65.714 0 0 1-1.886 2.397c-2.433 2.926-5.342 6.252-5.719 7.211-.457 1.129-.357 1.968.526 2.637.646.48 1.787.58 2.999.48 2.194-.14 3.713-.7 4.477-1.03a15.426 15.426 0 0 0 3.862-2.037c2.383-1.778 3.833-4.295 3.694-7.65-.07-1.849-.665-3.666-1.41-5.394.218-.31.427-.62.645-.96 3.763-5.533 6.672-11.625 6.672-11.625s.288 1.867 1.172 4.934c.456 1.558 1.36 3.256 2.164 4.934-3.524 2.897-5.738 6.253-6.503 8.46-1.41 4.075-.308 5.923 1.767 6.352.934.19 2.264-.24 3.267-.669a14.552 14.552 0 0 0 4.12-2.137c2.383-1.778 4.666-4.245 4.547-7.571-.07-1.538-.476-3.047-1.022-4.485 2.998-1.248 6.89-1.968 11.814-1.368 10.604 1.248 12.699 7.91 12.302 10.687-.407 2.777-2.621 4.315-3.356 4.794-.735.46-.973.62-.904.959.1.5.427.48 1.073.38.883-.14 5.579-2.278 5.768-7.412.288-6.552-5.937-13.743-16.968-13.673Zm-81.78 27.737c-3.504 3.855-8.439 5.323-10.534 4.075-2.263-1.319-1.38-7.002 2.93-11.097 2.62-2.497 6.026-4.794 8.27-6.213.496-.31 1.26-.769 2.164-1.318.139-.1.238-.14.238-.14.169-.1.358-.22.546-.34 1.599 5.854.08 10.977-3.614 15.033Zm25.616-17.52c-1.212 2.997-3.793 10.698-5.342 10.258-1.33-.36-2.144-6.182-.258-11.935.953-2.897 2.978-6.353 4.17-7.691 1.926-2.158 4.03-2.877 4.547-1.988.626 1.139-2.353 9.479-3.117 11.356Zm21.137 10.158c-.526.26-1.003.46-1.211.31-.169-.1.218-.46.218-.46s2.641-2.856 3.694-4.174c.595-.77 1.31-1.658 2.075-2.657v.29c-.01 3.455-3.297 5.763-4.776 6.691Zm16.302-3.735c-.377-.29-.337-1.179.954-3.955.496-1.1 1.648-2.947 3.623-4.695.239.72.378 1.419.358 2.058-.03 4.315-3.078 5.923-4.934 6.592Z" clip-rule="evenodd"/></g><defs><clipPath id="a"><path fill="#fff" d="M0 0h122v92H0z"/></clipPath></defs></svg>