<svg xmlns="http://www.w3.org/2000/svg" width="123" height="73" fill="none"><g clip-path="url(#a)"><path fill="#06B6D4" fill-rule="evenodd" d="M61.5 0C45.104 0 34.854 8.111 30.75 24.333c6.153-8.107 13.326-11.149 21.521-9.123 4.685 1.155 8.008 4.512 11.731 8.227 6.006 6.056 13.013 13.058 28.248 13.058 16.396 0 26.646-8.111 30.75-24.333-6.146 8.114-13.32 11.155-21.521 9.123-4.685-1.155-8.008-4.512-11.731-8.227C83.722 6.972 76.745 0 61.5 0ZM30.75 36.495c-16.396 0-26.646 8.111-30.75 24.333 6.16-8.107 13.333-11.149 21.521-9.123 4.685 1.155 8.008 4.512 11.731 8.237C39.258 65.988 46.265 73 61.5 73c16.396 0 26.646-8.111 30.75-24.333-6.146 8.108-13.32 11.142-21.521 9.103-4.685-1.155-8.008-4.512-11.731-8.227-6.006-6.056-13.013-13.068-28.248-13.068v.02Z" clip-rule="evenodd"/></g><defs><clipPath id="a"><path fill="#fff" d="M0 0h123v73H0z"/></clipPath></defs></svg>