<svg xmlns="http://www.w3.org/2000/svg" width="122" height="122" fill="none"><g fill-rule="evenodd" clip-path="url(#a)" clip-rule="evenodd"><path fill="#007ACC" d="M0 61V0h122v122H0V61Z"/><path fill="#fff" d="M26.747 61.209v4.974h15.856v45.144H53.86V66.183h15.856v-4.885c0-2.74 0-4.974-.119-5.034 0-.09-9.67-.119-21.416-.119l-21.346.09v5.003l-.089-.03Zm71.276-5.094c3.108.735 5.49 2.135 7.625 4.359 1.132 1.221 2.81 3.356 2.929 3.902 0 .178-5.272 3.753-8.479 5.738-.12.09-.606-.427-1.102-1.22-1.589-2.255-3.207-3.238-5.739-3.416-3.663-.248-6.096 1.678-6.096 4.875 0 .973.179 1.529.546 2.313.824 1.678 2.353 2.68 7.08 4.756 8.726 3.752 12.509 6.225 14.793 9.76 2.591 3.96 3.167 10.186 1.429 14.852-1.956 5.093-6.711 8.538-13.512 9.67-2.135.368-7.02.308-9.303-.089-4.875-.913-9.551-3.356-12.41-6.493-1.133-1.221-3.297-4.488-3.168-4.696l1.162-.735 4.577-2.65 3.445-2.016.794 1.072c1.003 1.588 3.267 3.723 4.577 4.458 3.962 2.045 9.273 1.767 11.894-.606 1.132-1.032 1.619-2.135 1.619-3.663 0-1.4-.219-2.046-.914-3.108-.973-1.34-2.928-2.442-8.419-4.875-6.314-2.68-8.995-4.388-11.497-7.02-1.43-1.588-2.74-4.06-3.356-6.095-.457-1.767-.605-6.096-.178-7.844 1.31-6.096 5.917-10.365 12.51-11.586 2.134-.427 7.168-.248 9.272.308l-.08.05Z"/></g><defs><clipPath id="a"><rect width="122" height="122" fill="#fff" rx="8"/></clipPath></defs></svg>