<svg xmlns="http://www.w3.org/2000/svg" width="26" height="22" fill="none"><g clip-path="url(#a)"><path fill="#fff" fill-rule="evenodd" d="M13 9.953a5.822 5.822 0 1 1 0 11.645 5.822 5.822 0 0 1 0-11.645Zm5.27-3.62a8.56 8.56 0 0 0-.478.256c-.476.279-.946.62-1.426 1.011l-1.024-1.172a8.49 8.49 0 0 1 2.154-1.451c.14-.07.28-.136.423-.197a6.23 6.23 0 0 0-2.747-2.581c-2.186-1.047-4.91-.82-6.835.676-1.107.857-1.947 2.14-2.27 3.839l-.102.53-.53.094c-.518.09-.98.216-1.387.374a4.668 4.668 0 0 0-1.052.563 3.474 3.474 0 0 0-.636.592c-.557.667-.815 1.502-.81 2.35.007.858.287 1.726.803 2.439.193.264.414.508.668.72.259.212.548.39.874.524.324.133.682.228 1.077.284h.576a7.477 7.477 0 0 0 .039 1.557h-.64l-.098-.009a6.023 6.023 0 0 1-1.542-.397c-.48-.2-.906-.456-1.28-.769a5.478 5.478 0 0 1-.93-.998A5.805 5.805 0 0 1 0 11.22c-.008-1.197.364-2.388 1.168-3.353.26-.313.567-.601.918-.855a6.174 6.174 0 0 1 1.406-.75 8.374 8.374 0 0 1 1.163-.357c.466-1.849 1.458-3.273 2.734-4.261C9.779-.208 13.132-.504 15.846.8a7.815 7.815 0 0 1 3.618 3.57c.338-.054.677-.081 1.013-.077 3.517.026 5.558 3.023 5.522 6.299-.014 1.335-.374 2.664-1.11 3.641a5.8 5.8 0 0 1-1.835 1.57c-.71.398-1.54.7-2.471.917l-.17.02a7.56 7.56 0 0 0 .036-1.588c.695-.177 1.313-.41 1.841-.705.557-.311 1.012-.69 1.352-1.144.53-.705.79-1.702.8-2.724.029-2.398-1.345-4.716-3.976-4.733-.725-.006-1.48.17-2.196.486ZM15.416 15.4c.185.008.316.069.392.185.206.308-.075.614-.27.829-.554.607-1.912 2.068-2.185 2.39-.206.229-.502.229-.709 0-.282-.33-1.707-1.857-2.234-2.448-.183-.206-.409-.486-.218-.771.077-.116.207-.178.393-.185h1.124v-1.634c0-.296.243-.54.54-.54h1.501c.297 0 .541.243.541.54V15.4h1.125Z" clip-rule="evenodd"/></g><defs><clipPath id="a"><path fill="#fff" d="M0 0h26v21.597H0z"/></clipPath></defs></svg>