<svg xmlns="http://www.w3.org/2000/svg" width="26" height="26" fill="none"><g clip-path="url(#a)"><path fill="#FDC500" d="M13 2.167c5.974 0 10.833 4.86 10.833 10.833 0 5.974-4.86 10.833-10.833 10.833S2.167 18.973 2.167 13 7.027 2.167 13 2.167ZM13 0C5.82 0 0 5.82 0 13s5.82 13 13 13 13-5.82 13-13S20.18 0 13 0Zm0 6.5a6.5 6.5 0 0 0-2.054 12.667c.325.061.429-.14.429-.313v-1.21c-1.808.394-2.185-.766-2.185-.766-.295-.75-.722-.95-.722-.95-.589-.405.045-.396.045-.396.653.045.996.67.996.67.58.994 1.52.707 1.892.54.059-.42.226-.705.413-.868-1.444-.165-2.961-.723-2.961-3.212 0-.71.254-1.29.67-1.744-.068-.166-.29-.828.062-1.723 0 0 .546-.174 1.788.667A6.265 6.265 0 0 1 13 9.642a6.233 6.233 0 0 1 1.628.22c1.242-.841 1.786-.667 1.786-.667.354.895.13 1.557.065 1.72.417.456.668 1.035.668 1.745 0 2.497-1.521 3.046-2.968 3.207.234.201.446.596.446 1.203v1.783c0 .174.104.376.433.312A6.5 6.5 0 0 0 13 6.5Z"/></g><defs><clipPath id="a"><path fill="#fff" d="M0 0h26v26H0z"/></clipPath></defs></svg>