<svg xmlns="http://www.w3.org/2000/svg" width="24" height="24" fill="none"><path fill="#7B2CBF" d="M0 0h24v24H0z"/><path fill="#000" d="m2.394 15.759 9.09 5.109a.995.995 0 0 0 .492.132.996.996 0 0 0 .484-.127l9.155-5.113a.752.752 0 0 0 .385-.656.751.751 0 0 0-1.116-.654s-7.052 3.958-8.539 4.77c-.211.115-.444.161-.722.006l-8.494-4.775a.75.75 0 0 0-.735 1.308Zm0-3.113 9.09 5.109a.995.995 0 0 0 .492.132.996.996 0 0 0 .484-.127l9.155-5.113a.752.752 0 0 0 .385-.656.751.751 0 0 0-1.116-.654s-7.052 3.958-8.539 4.77c-.211.115-.444.161-.722.006l-8.494-4.775a.75.75 0 0 0-.735 1.308Zm10.271-9.455A1.488 1.488 0 0 0 11.973 3a1.4 1.4 0 0 0-.675.191L2.414 8.196C2.138 8.379 2 8.64 2 8.894c0 .256.139.505.414.664l8.884 5.006c.221.133.447.203.678.203.223 0 .452-.065.689-.203l8.884-5.006c.295-.166.451-.421.451-.68 0-.25-.145-.503-.451-.682l-8.884-5.005Z"/></svg>