<svg xmlns="http://www.w3.org/2000/svg" width="24" height="24" fill="none"><g clip-path="url(#a)"><path fill="#EF233C" d="M0 0h24v24H0z"/><path fill="#000" fill-rule="evenodd" d="M15.517 24H3.871c.522-3.035.897-6.162-.422-8.028C1.783 13.615 1.02 11.23 1 9.089.955 3.899 5.231-.025 11.203 0c7.236.03 9.328 6.156 9.773 7.943.34 1.369-.898 1.869-.166 2.702.596.679 1.035 1.364 1.79 2.177.291.315.404.646.4.943-.006.434-.29.798-.748.958-.429.15-.76.32-1.215.443-.145 1.16-.52 2.572-.798 3.557-.737 2.62-2.896 1.059-3.88 2.607-.427.668-.64 1.738-.842 2.67Zm-4.293-8.316a.47.47 0 0 0 .307-.109l.594-.391h-2.25l.594.391c.077.069.19.109.308.109h.447Zm.922-1a.25.25 0 0 0 0-.5H9.867a.25.25 0 0 0 0 .5h2.28Zm.247-1c0-2.003 1.607-2.83 1.607-4.614 0-1.86-1.5-2.886-3-2.886S8 7.208 8 9.07c0 1.784 1.607 2.639 1.607 4.614h2.786Zm2.477-3.615 1.35.612-.414.911-1.299-.588c.151-.3.276-.608.363-.935Zm-7.739 0c.087.332.208.631.36.935l-1.296.588-.414-.911 1.35-.612Zm9.37-.885v-1h-1.595c.073.327.103.665.093 1H16.5Zm-9.499 0v-.003c-.01-.334.02-.67.092-.997H5.5v1h1.502Zm7.02-2.714 1.242-.882.58.816-1.253.888a3.66 3.66 0 0 0-.569-.822Zm-6.044-.001c-.23.252-.418.525-.569.823l-1.25-.888.577-.816 1.242.881Zm4.435-1.046.663-1.345.897.443-.664 1.345a4.063 4.063 0 0 0-.896-.443Zm-2.826-.001c-.315.11-.618.258-.897.442l-.663-1.343.897-.443.663 1.344Zm1.913-.208a4.233 4.233 0 0 0-1-.001V3.684h1v1.53Z" clip-rule="evenodd"/></g><defs><clipPath id="a"><path fill="#fff" d="M0 0h24v24H0z"/></clipPath></defs></svg>