<svg xmlns="http://www.w3.org/2000/svg" width="24" height="24" fill="none"><path fill="#16DB65" d="M0 0h24v24H0z"/><path fill="#000" d="M21 4c0-.478-.379-1-1-1H4c-.62 0-1 .519-1 1v16c0 .621.52 1 1 1h16c.478 0 1-.379 1-1V4Zm-3 11.25a.75.75 0 0 1-.75.75h-4.5a.75.75 0 0 1 0-1.5h4.5a.75.75 0 0 1 .75.75Zm-11.772-.537a.682.682 0 1 1 .91-1.018l.746.665 1.66-1.815a.683.683 0 0 1 1.009.92l-2.116 2.313a.68.68 0 0 1-.959.049l-1.25-1.114ZM18 12.002a.75.75 0 0 1-.75.75h-4.5a.75.75 0 0 1 0-1.5h4.5a.75.75 0 0 1 .75.75ZM6.228 10.389v.001a.681.681 0 1 1 .91-1.018l.746.664 1.66-1.815a.683.683 0 0 1 1.009.921l-2.116 2.313a.682.682 0 0 1-.959.048l-1.25-1.114ZM18 8.75a.75.75 0 0 1-.75.75h-4.5a.75.75 0 0 1 0-1.5h4.5a.75.75 0 0 1 .75.75Z"/></svg>